<svg width="25" height="25" viewBox="0 0 25 25" fill="none" xmlns="http://www.w3.org/2000/svg">
<circle cx="12.5" cy="12.5" r="11.5" fill="#868888" stroke="#868888" stroke-width="2"/>
<path d="M3.60842 6.92202C3.5851 6.61105 3.70818 6.307 3.94126 6.09982L6.22617 4.06879C6.55786 3.77395 7.04419 3.73299 7.42053 3.9682L8.99574 4.9527C9.37786 5.19153 9.55305 5.65643 9.42357 6.08805L8.84145 8.02844C8.80462 8.15119 8.74455 8.26572 8.66449 8.36579L6.34314 11.2675C5.88482 11.8404 4.98611 11.7411 4.66388 11.082L3.87013 9.45842C3.81435 9.34433 3.78082 9.22065 3.77132 9.094L3.60842 6.92202Z" fill="#2F3232"/>
<path d="M15.6763 8.2369C15.7007 7.99233 15.8144 7.76534 15.9956 7.59925L19.1136 4.74112C19.5745 4.31857 20.3059 4.418 20.6373 4.94827L21.7857 6.78572L23.4507 9.44969C23.5301 9.57684 23.58 9.72023 23.5966 9.86926L23.767 11.4037C23.8447 12.1029 23.1953 12.6616 22.5155 12.4803L18.698 11.4623C18.614 11.4399 18.5273 11.4286 18.4404 11.4286H16.4621C15.8705 11.4286 15.4082 10.9178 15.4671 10.3291L15.6763 8.2369Z" fill="#2F3232"/>
<path d="M5.82883 14.8313C5.77166 14.2025 6.33566 13.6957 6.95481 13.8195L9.32246 14.2931C10.3191 14.4924 11.0077 15.4075 10.9233 16.4203L10.5756 20.5932C10.4992 21.5095 9.33074 21.8457 8.77903 21.1101L7.67925 19.6438C6.62811 18.2422 5.98744 16.576 5.82883 14.8313V14.8313Z" fill="#2F3232"/>
<path d="M11.4286 3.06515C11.4286 2.55578 11.8415 2.14286 12.3509 2.14286H13.8083C14.2916 2.14286 14.7057 2.48848 14.7922 2.96397L15.1526 4.94608C15.2306 5.3752 14.7601 5.69151 14.3922 5.45735L11.8557 3.84324C11.5897 3.67395 11.4286 3.38048 11.4286 3.06515V3.06515Z" fill="#2F3232"/>
</svg>
